<mxfile host="app.diagrams.net" agent="Mozilla/5.0 (Windows NT 10.0; Win64; x64) AppleWebKit/537.36 (KHTML, like Gecko) Chrome/128.0.0.0 Safari/537.36" version="24.7.10">
  <diagram name="Page-1" id="Q22yXVPtf_XwK7WlZGhh">
    <mxGraphModel dx="1257" dy="670" grid="1" gridSize="10" guides="1" tooltips="1" connect="1" arrows="1" fold="1" page="1" pageScale="1" pageWidth="850" pageHeight="1100" math="0" shadow="0">
      <root>
        <mxCell id="0" />
        <mxCell id="1" parent="0" />
        <mxCell id="bAy1nwDRq2off-bAe8yl-118" value="" style="group" vertex="1" connectable="0" parent="1">
          <mxGeometry x="300" y="140" width="520" height="359" as="geometry" />
        </mxCell>
        <mxCell id="bAy1nwDRq2off-bAe8yl-30" value="" style="edgeStyle=orthogonalEdgeStyle;rounded=0;orthogonalLoop=1;jettySize=auto;html=1;" edge="1" parent="bAy1nwDRq2off-bAe8yl-118" source="bAy1nwDRq2off-bAe8yl-17" target="bAy1nwDRq2off-bAe8yl-25">
          <mxGeometry relative="1" as="geometry" />
        </mxCell>
        <mxCell id="bAy1nwDRq2off-bAe8yl-17" value="256, 1x1, 4" style="rounded=0;whiteSpace=wrap;html=1;" vertex="1" parent="bAy1nwDRq2off-bAe8yl-118">
          <mxGeometry y="60" width="120" height="40" as="geometry" />
        </mxCell>
        <mxCell id="bAy1nwDRq2off-bAe8yl-31" value="" style="edgeStyle=orthogonalEdgeStyle;rounded=0;orthogonalLoop=1;jettySize=auto;html=1;" edge="1" parent="bAy1nwDRq2off-bAe8yl-118" source="bAy1nwDRq2off-bAe8yl-23" target="bAy1nwDRq2off-bAe8yl-26">
          <mxGeometry relative="1" as="geometry" />
        </mxCell>
        <mxCell id="bAy1nwDRq2off-bAe8yl-23" value="256, 1x1, 4" style="rounded=0;whiteSpace=wrap;html=1;" vertex="1" parent="bAy1nwDRq2off-bAe8yl-118">
          <mxGeometry x="140" y="60" width="120" height="40" as="geometry" />
        </mxCell>
        <mxCell id="bAy1nwDRq2off-bAe8yl-32" value="" style="edgeStyle=orthogonalEdgeStyle;rounded=0;orthogonalLoop=1;jettySize=auto;html=1;" edge="1" parent="bAy1nwDRq2off-bAe8yl-118" source="bAy1nwDRq2off-bAe8yl-24" target="bAy1nwDRq2off-bAe8yl-27">
          <mxGeometry relative="1" as="geometry" />
        </mxCell>
        <mxCell id="bAy1nwDRq2off-bAe8yl-24" value="256, 1x1, 4" style="rounded=0;whiteSpace=wrap;html=1;" vertex="1" parent="bAy1nwDRq2off-bAe8yl-118">
          <mxGeometry x="340" y="60" width="120" height="40" as="geometry" />
        </mxCell>
        <mxCell id="bAy1nwDRq2off-bAe8yl-33" style="rounded=0;orthogonalLoop=1;jettySize=auto;html=1;exitX=0.5;exitY=1;exitDx=0;exitDy=0;entryX=0;entryY=0;entryDx=0;entryDy=0;" edge="1" parent="bAy1nwDRq2off-bAe8yl-118" source="bAy1nwDRq2off-bAe8yl-25" target="bAy1nwDRq2off-bAe8yl-28">
          <mxGeometry relative="1" as="geometry" />
        </mxCell>
        <mxCell id="bAy1nwDRq2off-bAe8yl-25" value="4, 3x3, 4" style="rounded=0;whiteSpace=wrap;html=1;" vertex="1" parent="bAy1nwDRq2off-bAe8yl-118">
          <mxGeometry y="120" width="120" height="40" as="geometry" />
        </mxCell>
        <mxCell id="bAy1nwDRq2off-bAe8yl-39" style="edgeStyle=orthogonalEdgeStyle;rounded=0;orthogonalLoop=1;jettySize=auto;html=1;exitX=0.5;exitY=1;exitDx=0;exitDy=0;" edge="1" parent="bAy1nwDRq2off-bAe8yl-118" source="bAy1nwDRq2off-bAe8yl-26">
          <mxGeometry relative="1" as="geometry">
            <mxPoint x="199.8571428571429" y="180" as="targetPoint" />
          </mxGeometry>
        </mxCell>
        <mxCell id="bAy1nwDRq2off-bAe8yl-26" value="4, 3x3, 4" style="rounded=0;whiteSpace=wrap;html=1;" vertex="1" parent="bAy1nwDRq2off-bAe8yl-118">
          <mxGeometry x="140" y="120" width="120" height="40" as="geometry" />
        </mxCell>
        <mxCell id="bAy1nwDRq2off-bAe8yl-34" style="rounded=0;orthogonalLoop=1;jettySize=auto;html=1;exitX=0.5;exitY=1;exitDx=0;exitDy=0;entryX=1;entryY=0;entryDx=0;entryDy=0;strokeColor=none;" edge="1" parent="bAy1nwDRq2off-bAe8yl-118" source="bAy1nwDRq2off-bAe8yl-27" target="bAy1nwDRq2off-bAe8yl-28">
          <mxGeometry relative="1" as="geometry" />
        </mxCell>
        <mxCell id="bAy1nwDRq2off-bAe8yl-36" style="rounded=0;orthogonalLoop=1;jettySize=auto;html=1;exitX=0.5;exitY=1;exitDx=0;exitDy=0;entryX=1;entryY=0;entryDx=0;entryDy=0;" edge="1" parent="bAy1nwDRq2off-bAe8yl-118" source="bAy1nwDRq2off-bAe8yl-27" target="bAy1nwDRq2off-bAe8yl-28">
          <mxGeometry relative="1" as="geometry" />
        </mxCell>
        <mxCell id="bAy1nwDRq2off-bAe8yl-27" value="4, 3x3, 4" style="rounded=0;whiteSpace=wrap;html=1;" vertex="1" parent="bAy1nwDRq2off-bAe8yl-118">
          <mxGeometry x="340" y="120" width="120" height="40" as="geometry" />
        </mxCell>
        <mxCell id="bAy1nwDRq2off-bAe8yl-37" value="" style="edgeStyle=orthogonalEdgeStyle;rounded=0;orthogonalLoop=1;jettySize=auto;html=1;" edge="1" parent="bAy1nwDRq2off-bAe8yl-118" source="bAy1nwDRq2off-bAe8yl-28" target="bAy1nwDRq2off-bAe8yl-29">
          <mxGeometry relative="1" as="geometry" />
        </mxCell>
        <mxCell id="bAy1nwDRq2off-bAe8yl-28" value="Concatenate" style="rounded=0;whiteSpace=wrap;html=1;" vertex="1" parent="bAy1nwDRq2off-bAe8yl-118">
          <mxGeometry x="130" y="181" width="210" height="40" as="geometry" />
        </mxCell>
        <mxCell id="bAy1nwDRq2off-bAe8yl-44" value="" style="edgeStyle=orthogonalEdgeStyle;rounded=0;orthogonalLoop=1;jettySize=auto;html=1;" edge="1" parent="bAy1nwDRq2off-bAe8yl-118" source="bAy1nwDRq2off-bAe8yl-29" target="bAy1nwDRq2off-bAe8yl-40">
          <mxGeometry relative="1" as="geometry" />
        </mxCell>
        <mxCell id="bAy1nwDRq2off-bAe8yl-29" value="128, 1x1, 256" style="rounded=0;whiteSpace=wrap;html=1;" vertex="1" parent="bAy1nwDRq2off-bAe8yl-118">
          <mxGeometry x="130" y="240" width="210" height="40" as="geometry" />
        </mxCell>
        <mxCell id="bAy1nwDRq2off-bAe8yl-40" value="" style="verticalLabelPosition=bottom;shadow=0;dashed=0;align=center;html=1;verticalAlign=top;shape=mxgraph.electrical.abstract.summation_point;" vertex="1" parent="bAy1nwDRq2off-bAe8yl-118">
          <mxGeometry x="220" y="320" width="30" height="30" as="geometry" />
        </mxCell>
        <mxCell id="bAy1nwDRq2off-bAe8yl-45" value="" style="endArrow=classic;html=1;rounded=0;" edge="1" parent="bAy1nwDRq2off-bAe8yl-118">
          <mxGeometry width="50" height="50" relative="1" as="geometry">
            <mxPoint x="200" as="sourcePoint" />
            <mxPoint x="200" y="20" as="targetPoint" />
          </mxGeometry>
        </mxCell>
        <mxCell id="bAy1nwDRq2off-bAe8yl-46" value="" style="endArrow=classic;html=1;rounded=0;entryX=0.5;entryY=0;entryDx=0;entryDy=0;" edge="1" parent="bAy1nwDRq2off-bAe8yl-118" target="bAy1nwDRq2off-bAe8yl-17">
          <mxGeometry width="50" height="50" relative="1" as="geometry">
            <mxPoint x="200" y="20" as="sourcePoint" />
            <mxPoint x="120" y="230" as="targetPoint" />
          </mxGeometry>
        </mxCell>
        <mxCell id="bAy1nwDRq2off-bAe8yl-47" value="" style="endArrow=classic;html=1;rounded=0;entryX=0.5;entryY=0;entryDx=0;entryDy=0;" edge="1" parent="bAy1nwDRq2off-bAe8yl-118" target="bAy1nwDRq2off-bAe8yl-23">
          <mxGeometry width="50" height="50" relative="1" as="geometry">
            <mxPoint x="200" y="20" as="sourcePoint" />
            <mxPoint x="70" y="70" as="targetPoint" />
          </mxGeometry>
        </mxCell>
        <mxCell id="bAy1nwDRq2off-bAe8yl-48" value="" style="endArrow=classic;html=1;rounded=0;entryX=0.5;entryY=0;entryDx=0;entryDy=0;" edge="1" parent="bAy1nwDRq2off-bAe8yl-118" target="bAy1nwDRq2off-bAe8yl-24">
          <mxGeometry width="50" height="50" relative="1" as="geometry">
            <mxPoint x="200" y="20" as="sourcePoint" />
            <mxPoint x="210" y="70" as="targetPoint" />
          </mxGeometry>
        </mxCell>
        <mxCell id="bAy1nwDRq2off-bAe8yl-49" value="" style="endArrow=classic;html=1;rounded=0;entryX=1;entryY=0.5;entryDx=0;entryDy=0;entryPerimeter=0;edgeStyle=orthogonalEdgeStyle;curved=1;" edge="1" parent="bAy1nwDRq2off-bAe8yl-118" target="bAy1nwDRq2off-bAe8yl-40">
          <mxGeometry width="50" height="50" relative="1" as="geometry">
            <mxPoint x="200" y="20" as="sourcePoint" />
            <mxPoint x="220" y="80" as="targetPoint" />
            <Array as="points">
              <mxPoint x="200" y="21" />
              <mxPoint x="520" y="21" />
              <mxPoint x="520" y="335" />
            </Array>
          </mxGeometry>
        </mxCell>
        <mxCell id="bAy1nwDRq2off-bAe8yl-50" value="&lt;font style=&quot;font-size: 13px;&quot;&gt;256-d in&lt;/font&gt;" style="edgeLabel;html=1;align=center;verticalAlign=middle;resizable=0;points=[];" vertex="1" connectable="0" parent="bAy1nwDRq2off-bAe8yl-118">
          <mxGeometry x="234.99714285714288" as="geometry" />
        </mxCell>
        <mxCell id="bAy1nwDRq2off-bAe8yl-51" value="&lt;font style=&quot;font-size: 13px;&quot;&gt;256-d out&lt;/font&gt;" style="edgeLabel;html=1;align=center;verticalAlign=middle;resizable=0;points=[];" vertex="1" connectable="0" parent="bAy1nwDRq2off-bAe8yl-118">
          <mxGeometry x="259.9971428571429" y="160" as="geometry">
            <mxPoint x="35" y="199" as="offset" />
          </mxGeometry>
        </mxCell>
        <mxCell id="bAy1nwDRq2off-bAe8yl-80" value="Total 32&lt;br&gt;path&lt;br&gt;&lt;b&gt;&lt;font style=&quot;font-size: 19px;&quot;&gt;. . . .&lt;/font&gt;&lt;/b&gt;" style="text;html=1;align=center;verticalAlign=middle;whiteSpace=wrap;rounded=0;" vertex="1" parent="bAy1nwDRq2off-bAe8yl-118">
          <mxGeometry x="270" y="100" width="60" height="30" as="geometry" />
        </mxCell>
        <mxCell id="bAy1nwDRq2off-bAe8yl-119" value="" style="group" vertex="1" connectable="0" parent="1">
          <mxGeometry x="890" y="130" width="520" height="345.5" as="geometry" />
        </mxCell>
        <mxCell id="bAy1nwDRq2off-bAe8yl-83" value="" style="edgeStyle=orthogonalEdgeStyle;rounded=0;orthogonalLoop=1;jettySize=auto;html=1;" edge="1" parent="bAy1nwDRq2off-bAe8yl-119" source="bAy1nwDRq2off-bAe8yl-84" target="bAy1nwDRq2off-bAe8yl-90">
          <mxGeometry relative="1" as="geometry" />
        </mxCell>
        <mxCell id="bAy1nwDRq2off-bAe8yl-84" value="256, 1x1, 4" style="rounded=0;whiteSpace=wrap;html=1;" vertex="1" parent="bAy1nwDRq2off-bAe8yl-119">
          <mxGeometry y="60" width="120" height="40" as="geometry" />
        </mxCell>
        <mxCell id="bAy1nwDRq2off-bAe8yl-85" value="" style="edgeStyle=orthogonalEdgeStyle;rounded=0;orthogonalLoop=1;jettySize=auto;html=1;" edge="1" parent="bAy1nwDRq2off-bAe8yl-119" source="bAy1nwDRq2off-bAe8yl-86" target="bAy1nwDRq2off-bAe8yl-92">
          <mxGeometry relative="1" as="geometry" />
        </mxCell>
        <mxCell id="bAy1nwDRq2off-bAe8yl-86" value="256, 1x1, 4" style="rounded=0;whiteSpace=wrap;html=1;" vertex="1" parent="bAy1nwDRq2off-bAe8yl-119">
          <mxGeometry x="140" y="60" width="120" height="40" as="geometry" />
        </mxCell>
        <mxCell id="bAy1nwDRq2off-bAe8yl-87" value="" style="edgeStyle=orthogonalEdgeStyle;rounded=0;orthogonalLoop=1;jettySize=auto;html=1;" edge="1" parent="bAy1nwDRq2off-bAe8yl-119" source="bAy1nwDRq2off-bAe8yl-88" target="bAy1nwDRq2off-bAe8yl-95">
          <mxGeometry relative="1" as="geometry" />
        </mxCell>
        <mxCell id="bAy1nwDRq2off-bAe8yl-88" value="256, 1x1, 4" style="rounded=0;whiteSpace=wrap;html=1;" vertex="1" parent="bAy1nwDRq2off-bAe8yl-119">
          <mxGeometry x="340" y="60" width="120" height="40" as="geometry" />
        </mxCell>
        <mxCell id="bAy1nwDRq2off-bAe8yl-114" value="" style="edgeStyle=orthogonalEdgeStyle;rounded=0;orthogonalLoop=1;jettySize=auto;html=1;" edge="1" parent="bAy1nwDRq2off-bAe8yl-119" source="bAy1nwDRq2off-bAe8yl-90" target="bAy1nwDRq2off-bAe8yl-109">
          <mxGeometry relative="1" as="geometry" />
        </mxCell>
        <mxCell id="bAy1nwDRq2off-bAe8yl-90" value="4, 3x3, 4" style="rounded=0;whiteSpace=wrap;html=1;" vertex="1" parent="bAy1nwDRq2off-bAe8yl-119">
          <mxGeometry y="120" width="120" height="40" as="geometry" />
        </mxCell>
        <mxCell id="bAy1nwDRq2off-bAe8yl-113" value="" style="edgeStyle=orthogonalEdgeStyle;rounded=0;orthogonalLoop=1;jettySize=auto;html=1;" edge="1" parent="bAy1nwDRq2off-bAe8yl-119" source="bAy1nwDRq2off-bAe8yl-92" target="bAy1nwDRq2off-bAe8yl-110">
          <mxGeometry relative="1" as="geometry" />
        </mxCell>
        <mxCell id="bAy1nwDRq2off-bAe8yl-92" value="4, 3x3, 4" style="rounded=0;whiteSpace=wrap;html=1;" vertex="1" parent="bAy1nwDRq2off-bAe8yl-119">
          <mxGeometry x="140" y="120" width="120" height="40" as="geometry" />
        </mxCell>
        <mxCell id="bAy1nwDRq2off-bAe8yl-93" style="rounded=0;orthogonalLoop=1;jettySize=auto;html=1;exitX=0.5;exitY=1;exitDx=0;exitDy=0;entryX=1;entryY=0;entryDx=0;entryDy=0;strokeColor=none;" edge="1" parent="bAy1nwDRq2off-bAe8yl-119" source="bAy1nwDRq2off-bAe8yl-95">
          <mxGeometry relative="1" as="geometry">
            <mxPoint x="340" y="181" as="targetPoint" />
          </mxGeometry>
        </mxCell>
        <mxCell id="bAy1nwDRq2off-bAe8yl-112" value="" style="edgeStyle=orthogonalEdgeStyle;rounded=0;orthogonalLoop=1;jettySize=auto;html=1;" edge="1" parent="bAy1nwDRq2off-bAe8yl-119" source="bAy1nwDRq2off-bAe8yl-95" target="bAy1nwDRq2off-bAe8yl-111">
          <mxGeometry relative="1" as="geometry" />
        </mxCell>
        <mxCell id="bAy1nwDRq2off-bAe8yl-95" value="4, 3x3, 4" style="rounded=0;whiteSpace=wrap;html=1;" vertex="1" parent="bAy1nwDRq2off-bAe8yl-119">
          <mxGeometry x="340" y="120" width="120" height="40" as="geometry" />
        </mxCell>
        <mxCell id="bAy1nwDRq2off-bAe8yl-100" value="" style="verticalLabelPosition=bottom;shadow=0;dashed=0;align=center;html=1;verticalAlign=top;shape=mxgraph.electrical.abstract.summation_point;" vertex="1" parent="bAy1nwDRq2off-bAe8yl-119">
          <mxGeometry x="185" y="315.5" width="30" height="30" as="geometry" />
        </mxCell>
        <mxCell id="bAy1nwDRq2off-bAe8yl-101" value="" style="endArrow=classic;html=1;rounded=0;" edge="1" parent="bAy1nwDRq2off-bAe8yl-119">
          <mxGeometry width="50" height="50" relative="1" as="geometry">
            <mxPoint x="200" as="sourcePoint" />
            <mxPoint x="200" y="20" as="targetPoint" />
          </mxGeometry>
        </mxCell>
        <mxCell id="bAy1nwDRq2off-bAe8yl-102" value="" style="endArrow=classic;html=1;rounded=0;entryX=0.5;entryY=0;entryDx=0;entryDy=0;" edge="1" parent="bAy1nwDRq2off-bAe8yl-119" target="bAy1nwDRq2off-bAe8yl-84">
          <mxGeometry width="50" height="50" relative="1" as="geometry">
            <mxPoint x="200" y="20" as="sourcePoint" />
            <mxPoint x="120" y="230" as="targetPoint" />
          </mxGeometry>
        </mxCell>
        <mxCell id="bAy1nwDRq2off-bAe8yl-103" value="" style="endArrow=classic;html=1;rounded=0;entryX=0.5;entryY=0;entryDx=0;entryDy=0;" edge="1" parent="bAy1nwDRq2off-bAe8yl-119" target="bAy1nwDRq2off-bAe8yl-86">
          <mxGeometry width="50" height="50" relative="1" as="geometry">
            <mxPoint x="200" y="20" as="sourcePoint" />
            <mxPoint x="70" y="70" as="targetPoint" />
          </mxGeometry>
        </mxCell>
        <mxCell id="bAy1nwDRq2off-bAe8yl-104" value="" style="endArrow=classic;html=1;rounded=0;entryX=0.5;entryY=0;entryDx=0;entryDy=0;" edge="1" parent="bAy1nwDRq2off-bAe8yl-119" target="bAy1nwDRq2off-bAe8yl-88">
          <mxGeometry width="50" height="50" relative="1" as="geometry">
            <mxPoint x="200" y="20" as="sourcePoint" />
            <mxPoint x="210" y="70" as="targetPoint" />
          </mxGeometry>
        </mxCell>
        <mxCell id="bAy1nwDRq2off-bAe8yl-105" value="" style="endArrow=classic;html=1;rounded=0;entryX=1;entryY=0.5;entryDx=0;entryDy=0;entryPerimeter=0;edgeStyle=orthogonalEdgeStyle;curved=1;" edge="1" parent="bAy1nwDRq2off-bAe8yl-119" target="bAy1nwDRq2off-bAe8yl-100">
          <mxGeometry width="50" height="50" relative="1" as="geometry">
            <mxPoint x="200" y="20" as="sourcePoint" />
            <mxPoint x="220" y="80" as="targetPoint" />
            <Array as="points">
              <mxPoint x="200" y="10" />
              <mxPoint x="520" y="10" />
              <mxPoint x="520" y="331" />
            </Array>
          </mxGeometry>
        </mxCell>
        <mxCell id="bAy1nwDRq2off-bAe8yl-106" value="&lt;font style=&quot;font-size: 13px;&quot;&gt;256-d in&lt;/font&gt;" style="edgeLabel;html=1;align=center;verticalAlign=middle;resizable=0;points=[];" vertex="1" connectable="0" parent="bAy1nwDRq2off-bAe8yl-119">
          <mxGeometry x="234.997142857143" as="geometry" />
        </mxCell>
        <mxCell id="bAy1nwDRq2off-bAe8yl-107" value="&lt;font style=&quot;font-size: 13px;&quot;&gt;256-d out&lt;/font&gt;" style="edgeLabel;html=1;align=center;verticalAlign=middle;resizable=0;points=[];" vertex="1" connectable="0" parent="bAy1nwDRq2off-bAe8yl-119">
          <mxGeometry x="224.997142857143" y="145.5" as="geometry">
            <mxPoint x="35" y="199" as="offset" />
          </mxGeometry>
        </mxCell>
        <mxCell id="bAy1nwDRq2off-bAe8yl-108" value="Total 32&lt;br&gt;path&lt;br&gt;&lt;b&gt;&lt;font style=&quot;font-size: 19px;&quot;&gt;. . . .&lt;/font&gt;&lt;/b&gt;" style="text;html=1;align=center;verticalAlign=middle;whiteSpace=wrap;rounded=0;" vertex="1" parent="bAy1nwDRq2off-bAe8yl-119">
          <mxGeometry x="270" y="100" width="60" height="30" as="geometry" />
        </mxCell>
        <mxCell id="bAy1nwDRq2off-bAe8yl-109" value="4, 1x1, 256" style="rounded=0;whiteSpace=wrap;html=1;" vertex="1" parent="bAy1nwDRq2off-bAe8yl-119">
          <mxGeometry y="176.5" width="120" height="40" as="geometry" />
        </mxCell>
        <mxCell id="bAy1nwDRq2off-bAe8yl-116" value="" style="edgeStyle=orthogonalEdgeStyle;rounded=0;orthogonalLoop=1;jettySize=auto;html=1;" edge="1" parent="bAy1nwDRq2off-bAe8yl-119" source="bAy1nwDRq2off-bAe8yl-110" target="bAy1nwDRq2off-bAe8yl-100">
          <mxGeometry relative="1" as="geometry" />
        </mxCell>
        <mxCell id="bAy1nwDRq2off-bAe8yl-110" value="4, 1x1, 256" style="rounded=0;whiteSpace=wrap;html=1;" vertex="1" parent="bAy1nwDRq2off-bAe8yl-119">
          <mxGeometry x="140" y="176.5" width="120" height="40" as="geometry" />
        </mxCell>
        <mxCell id="bAy1nwDRq2off-bAe8yl-111" value="4, 1x1, 256" style="rounded=0;whiteSpace=wrap;html=1;" vertex="1" parent="bAy1nwDRq2off-bAe8yl-119">
          <mxGeometry x="340" y="176.5" width="120" height="40" as="geometry" />
        </mxCell>
        <mxCell id="bAy1nwDRq2off-bAe8yl-115" style="rounded=0;orthogonalLoop=1;jettySize=auto;html=1;exitX=0.5;exitY=1;exitDx=0;exitDy=0;entryX=0.038;entryY=0.183;entryDx=0;entryDy=0;entryPerimeter=0;" edge="1" parent="bAy1nwDRq2off-bAe8yl-119" source="bAy1nwDRq2off-bAe8yl-109" target="bAy1nwDRq2off-bAe8yl-100">
          <mxGeometry relative="1" as="geometry" />
        </mxCell>
        <mxCell id="bAy1nwDRq2off-bAe8yl-117" style="rounded=0;orthogonalLoop=1;jettySize=auto;html=1;exitX=0.5;exitY=1;exitDx=0;exitDy=0;entryX=0.938;entryY=0.219;entryDx=0;entryDy=0;entryPerimeter=0;" edge="1" parent="bAy1nwDRq2off-bAe8yl-119" source="bAy1nwDRq2off-bAe8yl-111" target="bAy1nwDRq2off-bAe8yl-100">
          <mxGeometry relative="1" as="geometry" />
        </mxCell>
        <mxCell id="bAy1nwDRq2off-bAe8yl-123" value="" style="group" vertex="1" connectable="0" parent="1">
          <mxGeometry x="159.99" y="780" width="520.01" height="329.41126206430204" as="geometry" />
        </mxCell>
        <mxCell id="bAy1nwDRq2off-bAe8yl-4" value="" style="edgeStyle=orthogonalEdgeStyle;rounded=0;orthogonalLoop=1;jettySize=auto;html=1;" edge="1" parent="bAy1nwDRq2off-bAe8yl-123" source="bAy1nwDRq2off-bAe8yl-1" target="bAy1nwDRq2off-bAe8yl-2">
          <mxGeometry relative="1" as="geometry" />
        </mxCell>
        <mxCell id="bAy1nwDRq2off-bAe8yl-1" value="256, 1x1, 128" style="rounded=0;whiteSpace=wrap;html=1;" vertex="1" parent="bAy1nwDRq2off-bAe8yl-123">
          <mxGeometry x="0.009999999999990905" y="44.138439786069966" width="283.64" height="38.113542755271425" as="geometry" />
        </mxCell>
        <mxCell id="bAy1nwDRq2off-bAe8yl-5" value="" style="edgeStyle=orthogonalEdgeStyle;rounded=0;orthogonalLoop=1;jettySize=auto;html=1;" edge="1" parent="bAy1nwDRq2off-bAe8yl-123" source="bAy1nwDRq2off-bAe8yl-2" target="bAy1nwDRq2off-bAe8yl-3">
          <mxGeometry relative="1" as="geometry" />
        </mxCell>
        <mxCell id="bAy1nwDRq2off-bAe8yl-2" value="128, 3x3, 128&lt;br&gt;Group = 32" style="rounded=0;whiteSpace=wrap;html=1;" vertex="1" parent="bAy1nwDRq2off-bAe8yl-123">
          <mxGeometry x="0.009999999999990905" y="104.33223704432282" width="283.64" height="50.15230220692201" as="geometry" />
        </mxCell>
        <mxCell id="bAy1nwDRq2off-bAe8yl-7" value="" style="edgeStyle=orthogonalEdgeStyle;rounded=0;orthogonalLoop=1;jettySize=auto;html=1;" edge="1" parent="bAy1nwDRq2off-bAe8yl-123" source="bAy1nwDRq2off-bAe8yl-3" target="bAy1nwDRq2off-bAe8yl-6">
          <mxGeometry relative="1" as="geometry" />
        </mxCell>
        <mxCell id="bAy1nwDRq2off-bAe8yl-3" value="128, 1x1, 256" style="rounded=0;whiteSpace=wrap;html=1;" vertex="1" parent="bAy1nwDRq2off-bAe8yl-123">
          <mxGeometry y="187.5883690907974" width="283.64" height="33.10382983955248" as="geometry" />
        </mxCell>
        <mxCell id="bAy1nwDRq2off-bAe8yl-6" value="" style="verticalLabelPosition=bottom;shadow=0;dashed=0;align=center;html=1;verticalAlign=top;shape=mxgraph.electrical.abstract.summation_point;" vertex="1" parent="bAy1nwDRq2off-bAe8yl-123">
          <mxGeometry x="126.82" y="297.9344685559722" width="30" height="30" as="geometry" />
        </mxCell>
        <mxCell id="bAy1nwDRq2off-bAe8yl-8" value="" style="endArrow=classic;html=1;rounded=0;entryX=0.5;entryY=0;entryDx=0;entryDy=0;" edge="1" parent="bAy1nwDRq2off-bAe8yl-123" target="bAy1nwDRq2off-bAe8yl-1">
          <mxGeometry width="50" height="50" relative="1" as="geometry">
            <mxPoint x="142.01" as="sourcePoint" />
            <mxPoint x="709.1009090909091" y="782.4598881170468" as="targetPoint" />
          </mxGeometry>
        </mxCell>
        <mxCell id="bAy1nwDRq2off-bAe8yl-11" value="" style="endArrow=classic;html=1;rounded=0;entryX=1;entryY=0.5;entryDx=0;entryDy=0;entryPerimeter=0;edgeStyle=orthogonalEdgeStyle;curved=1;" edge="1" parent="bAy1nwDRq2off-bAe8yl-123" target="bAy1nwDRq2off-bAe8yl-6">
          <mxGeometry width="50" height="50" relative="1" as="geometry">
            <mxPoint x="142.01" y="22.069219893034983" as="sourcePoint" />
            <mxPoint x="709.1009090909091" y="782.4598881170468" as="targetPoint" />
            <Array as="points">
              <mxPoint x="520.01" y="22" />
              <mxPoint x="520.01" y="313" />
            </Array>
          </mxGeometry>
        </mxCell>
        <mxCell id="bAy1nwDRq2off-bAe8yl-12" value="&lt;font style=&quot;font-size: 13px;&quot;&gt;256-d in&lt;/font&gt;" style="edgeLabel;html=1;align=center;verticalAlign=middle;resizable=0;points=[];" vertex="1" connectable="0" parent="bAy1nwDRq2off-bAe8yl-11">
          <mxGeometry x="-0.9516" y="-4" relative="1" as="geometry">
            <mxPoint x="25" y="-14" as="offset" />
          </mxGeometry>
        </mxCell>
        <mxCell id="bAy1nwDRq2off-bAe8yl-15" value="&lt;font style=&quot;font-size: 13px;&quot;&gt;256-d out&lt;/font&gt;" style="edgeLabel;html=1;align=center;verticalAlign=middle;resizable=0;points=[];" vertex="1" connectable="0" parent="bAy1nwDRq2off-bAe8yl-123">
          <mxGeometry x="177.27597402597405" y="130.41126206430204" as="geometry">
            <mxPoint x="35" y="199" as="offset" />
          </mxGeometry>
        </mxCell>
      </root>
    </mxGraphModel>
  </diagram>
</mxfile>
